<svg width="720" height="420" viewBox="0 0 720 420" xmlns="http://www.w3.org/2000/svg">
  <defs>
    <linearGradient id="bg" x1="0" y1="0" x2="1" y2="1">
      <stop offset="0%" stop-color="#ffd7e4"/>
      <stop offset="55%" stop-color="#ffdbe7"/>
      <stop offset="100%" stop-color="#fff0f5"/>
    </linearGradient>
    <linearGradient id="sunset" x1="0.2" y1="0.1" x2="0.8" y2="0.9">
      <stop offset="0%" stop-color="#ff9ab3" stop-opacity="0.85"/>
      <stop offset="100%" stop-color="#ffbdd0" stop-opacity="0.25"/>
    </linearGradient>
  </defs>
  <rect width="720" height="420" fill="url(#bg)"/>
  <circle cx="560" cy="96" r="68" fill="url(#sunset)"/>
  <path d="M0 280 C160 230 260 300 390 270 C530 230 610 280 720 250 V420 H0 Z" fill="#ffc1d4" fill-opacity="0.45"/>
  <path d="M0 320 C130 290 280 350 420 328 C560 306 640 340 720 322 V420 H0 Z" fill="#ffb4c9" fill-opacity="0.35"/>
  <path d="M327 188 C327 170 345 156 360 168 C375 156 393 170 393 188 C393 209 360 228 360 228 C360 228 327 209 327 188 Z" fill="#ff83a7" fill-opacity="0.88"/>
</svg>
